<svg width="18" height="16" viewBox="0 0 18 16" fill="none" xmlns="http://www.w3.org/2000/svg">
<path d="M3.5284 7.42827C3.49934 7.62826 3.49934 7.79968 3.49934 7.99967H1.75541C1.75541 7.79968 1.75541 7.62826 1.78448 7.42827H3.5284Z" fill="#585858"/>
<path d="M10.3297 3.99984H9.45775C9.22523 3.99984 9.02177 4.19983 9.02177 4.42839V8.1711C9.02177 8.28538 9.0799 8.39966 9.13803 8.48537L11.5795 10.8853C11.7539 11.0567 12.0155 11.0567 12.1899 10.8853L12.8003 10.2853C12.9747 10.1139 12.9747 9.85674 12.8003 9.68532L10.7657 7.65683V4.42839C10.7657 4.19983 10.5622 3.99984 10.3297 3.99984Z" fill="#585858"/>
<path d="M9.89373 0C5.59205 0 2.07513 3.28558 1.78448 7.42827C1.78448 7.51398 1.75541 7.62826 1.75541 7.71397H0.447468C0.0696176 7.71397 -0.133841 8.14253 0.0986828 8.39966L2.27859 10.9996C2.45298 11.1995 2.7727 11.1995 2.9471 10.9996L5.127 8.39966C5.35953 8.11396 5.15607 7.71397 4.77822 7.71397H3.49934C3.49934 7.62826 3.49934 7.51398 3.49934 7.42827C3.78999 4.2284 6.55121 1.71422 9.86467 1.71422C13.6432 1.71422 16.6369 4.94266 16.23 8.71393C15.9393 11.4281 13.3235 13.9994 10.5332 14.2566C8.46953 14.4566 6.52214 13.7137 5.15607 12.2566C4.98168 12.0567 4.74915 11.9424 4.51663 12.2281L3.81906 13.0566C3.67373 13.228 3.78999 13.3423 3.93532 13.4852C5.50485 15.1137 7.65569 16.0279 9.98093 15.9993C14.1664 15.9422 17.6833 12.6852 17.9739 8.57108C18.3518 3.91413 14.5733 0 9.89373 0Z" fill="#585858"/>
</svg>
